<?xml version="1.0" encoding="UTF-8" standalone="no"?><!DOCTYPE svg PUBLIC "-//W3C//DTD SVG 1.1//EN" "http://www.w3.org/Graphics/SVG/1.1/DTD/svg11.dtd"><svg width="100%" height="100%" viewBox="0 0 350 120" version="1.1" xmlns="http://www.w3.org/2000/svg" xmlns:xlink="http://www.w3.org/1999/xlink" xml:space="preserve" xmlns:serif="http://www.serif.com/" style="fill-rule:evenodd;clip-rule:evenodd;stroke-linejoin:round;stroke-miterlimit:1.41421;"><g><path d="M350,120l-350,0l0,-120l350,0l0,120Zm-121,-22c1.466,-0.105 1.889,-0.447 2,-2l0,-72c-0.086,-1.198 -0.258,-1.587 -1.286,-1.875c-0.129,-0.036 -0.272,-0.07 -0.429,-0.105l-0.285,-0.02l-108,0c-1.466,0.105 -1.889,0.446 -2,2l0,72c0.105,1.466 0.446,1.889 2,2l108,0Zm0,-18l0,0l0,16l-108,0l0,-16l0,0l108,0Zm-9,11l-6,-6l2.828,0l3.172,3.172l3.172,-3.172l2.828,0l-6,6Zm-27,-2l0,-2l-63,0l0,2l63,0Zm36,-45l0,0l0,34l-108,0l0,-34l0,0l108,0Zm-54,30l0,-2l-31,0l0,2l31,0Zm-36,0l0,-2l-5,0l0,2l5,0Zm36,-6l0,-2l-31,0l0,2l31,0Zm-36,0l0,-2l-5,0l0,2l5,0Zm36,-6l0,-2l-31,0l0,2l31,0Zm-36,0l0,-2l-5,0l0,2l5,0Zm87,-7l-6,-6l-6,6l2.828,0l3.172,-3.172l3.172,3.172l2.828,0Zm-33,-2l0,-2l-63,0l0,2l63,0Zm36,-29l0,18l-108,0l0,-18l108,0Zm-9,12l-6,-6l2.828,0l3.172,3.172l3.172,-3.172l2.828,0l-6,6Zm-27,-2l0,-2l-63,0l0,2l63,0Z" style="fill:#008ebd;"/></g></svg>